Coordinates
version=1
nRows=16
nColumns=22
inDegrees=yes

Units are S.I. units (second, meters, Newtons, ...)
If the header above contains a line with 'inDegrees', this indicates whether rotational values are in degrees (yes) or radians (no).

endheader
time	pelvis_tilt	pelvis_list	pelvis_rotation	pelvis_tx	pelvis_ty	pelvis_tz	hip_flexion_r	hip_adduction_r	hip_rotation_r	knee_angle_r	ankle_angle_r	subtalar_angle_r	hip_flexion_l	hip_adduction_l	hip_rotation_l	knee_angle_l	ankle_angle_l	subtalar_angle_l	lumbar_extension	lumbar_bending	lumbar_rotation
      2.76000000	     -1.88356691	     -6.05694091	    -11.49667162	     -0.37145775	      0.86438698	      0.28579029	     18.28285169	      1.86571060	     -3.03861534	    -31.08819367	     15.08707227	      1.55404396	     19.78761588	    -12.50321626	     -1.50425084	    -79.05462899	      5.61474093	     -5.94225170	     -6.53214354	      6.43695970	     12.91182222
      2.77000000	     -1.63811825	     -5.85451136	    -11.29557436	     -0.36390818	      0.86668124	      0.28815352	     17.12748193	      1.66380254	     -3.18717075	    -30.44589480	     15.24993449	      1.53115002	     21.01019374	    -12.21808299	     -2.67669180	    -78.78813786	      6.07482736	     -5.78358994	     -6.74200895	      6.06652261	     13.92170487
      2.78000000	     -1.37579349	     -5.66131778	    -11.15662790	     -0.35634219	      0.86902797	      0.29042269	     15.91425569	      1.46989060	     -3.31212270	    -29.71842436	     15.36625282	      1.54785050	     22.05222618	    -11.97566706	     -3.99882070	    -78.15456697	      6.48503148	     -5.36976751	     -6.95490245	      5.70684857	     14.95785674
      2.79000000	     -1.13581826	     -5.48993906	    -11.08567537	     -0.34881302	      0.87131893	      0.29264986	     14.71248373	      1.30894451	     -3.40893868	    -28.95660940	     15.43210436	      1.60276754	     22.96475363	    -11.81704964	     -5.44992310	    -77.18874845	      6.88788922	     -4.80130812	     -7.13368915	      5.36935643	     16.04577994
      2.80000000	     -0.92621804	     -5.34165329	    -11.05838461	     -0.34131721	      0.87352267	      0.29478297	     13.53156123	      1.17287792	     -3.49780026	    -28.16269149	     15.44900509	      1.68860855	     23.76777436	    -11.73974704	     -6.98864907	    -75.91610218	      7.28355145	     -4.14958238	     -7.26992369	      5.06407942	     17.14654963
      2.81000000	     -0.75449346	     -5.21869176	    -11.05618110	     -0.33384726	      0.87560862	      0.29681381	     12.38332134	      1.06364689	     -3.58343787	    -27.34895207	     15.42208860	      1.80035040	     24.47712775	    -11.74579394	     -8.58114015	    -74.36045617	      7.67818911	     -3.49092769	     -7.35343327	      4.79271482	     18.23401045
      2.82000000	     -0.62613201	     -5.12289382	    -11.06066790	     -0.32639282	      0.87755281	      0.29870802	     11.27584174	      0.98081442	     -3.66938635	    -26.52428797	     15.36234458	      1.92959751	     25.10600379	    -11.82420990	    -10.18764310	    -72.54436962	      8.07139286	     -2.91213084	     -7.37914367	      4.56456622	     19.28457083
      2.83000000	     -0.54122852	     -5.06022614	    -11.06254592	     -0.31897327	      0.87932813	      0.30048222	     10.22054517	      0.93083885	     -3.77407365	    -25.71204166	     15.27440620	      2.06894988	     25.66603447	    -11.97906028	    -11.78190927	    -70.50000055	      8.46431125	     -2.47079960	     -7.35299154	      4.37927241	     20.29942248
      2.84000000	     -0.46760395	     -5.00683048	    -11.00749034	     -0.31152138	      0.88098519	      0.30203858	      9.16269639	      0.87239811	     -3.92431183	    -24.87934716	     15.15141367	      2.25043946	     26.12829218	    -12.13705655	    -13.30701389	    -68.22409218	      8.85946816	     -2.12101568	     -7.29746452	      4.21394698	     21.17743051
      2.85000000	     -0.44972561	     -4.99429155	    -10.94756824	     -0.30410226	      0.88241863	      0.30348911	      8.17796654	      0.86521234	     -4.06618323	    -24.08177044	     15.02029902	      2.40811988	     26.54534544	    -12.36611662	    -14.78504593	    -65.76523157	      9.22682531	     -2.00806749	     -7.18059309	      4.10142593	     22.02810832
      2.86000000	     -0.41280897	     -4.97944473	    -10.81112956	     -0.29662890	      0.88374705	      0.30466647	      7.15545934	      0.82977041	     -4.27717189	    -23.26078193	     14.89522176	      2.62516283	     26.84252776	    -12.55113980	    -16.17509281	    -63.10145980	      9.55027692	     -2.07044286	     -7.06976336	      3.99715254	     22.71188310
      2.87000000	     -0.41236415	     -4.99961652	    -10.65640166	     -0.28918187	      0.88484492	      0.30572155	      6.18574847	      0.83800060	     -4.48573739	    -22.47896915	     14.77850901	      2.82046636	     27.08718420	    -12.76982541	    -17.49536164	    -60.28430807	      9.81516011	     -2.30793741	     -6.92047046	      3.93501462	     23.34357277
      2.88000000	     -0.42541115	     -5.03761834	    -10.47418838	     -0.28173346	      0.88574037	      0.30661373	      5.23977577	      0.86076009	     -4.72157128	    -21.71989551	     14.64784509	      3.00292048	     27.25534164	    -12.99342106	    -18.77672073	    -57.32206485	     10.01081950	     -2.65911357	     -6.75411347	      3.89792149	     23.87721582
      2.89000000	     -0.45580542	     -5.07546016	    -10.21361628	     -0.27423929	      0.88640020	      0.30722616	      4.30478649	      0.87296188	     -5.03910136	    -20.96466882	     14.59329870	      3.25865024	     27.37481273	    -13.13941059	    -19.93283566	    -54.21814048	     10.13628179	     -3.24669210	     -6.55501719	      3.87328560	     24.26970795
      2.90000000	     -0.50746670	     -5.14020257	     -9.96933559	     -0.26678060	      0.88681926	      0.30776597	      3.40381486	      0.92732745	     -5.31634540	    -20.23221862	     14.56319071	      3.42321708	     27.43808647	    -13.30778246	    -21.08261360	    -51.02149677	     10.16196239	     -3.71981921	     -6.33868428	      3.87411822	     24.63925841
      2.91000000	     -0.58326375	     -5.20917451	     -9.69544162	     -0.25934005	      0.88697652	      0.30808305	      2.55375542	      0.97983319	     -5.65338716	    -19.54698125	     14.53311258	      3.57817318	     27.47897843	    -13.42481504	    -22.16706047	    -47.75447042	     10.08942917	     -4.18090070	     -6.09462815	      3.88788599	     24.94736928
